# xmcd
#
# Track frame offsets:
#	150
#	23100
#	38652
#	57768
#	80718
#	96081
#	115953
#	132396
#	152727
#	173787
#	194901
#	215070
#	234294
#	257028
#	281517
#	299175
#	315915
#
# Disc length: 4471 seconds
#
# Revision: 0
# Processed by: cddbd v1.5.2PL0 Copyright (c) Steve Scherf et al.
# Submitted via: dBpowerAMP V4.0
#
DISCID=fb117511
DTITLE=afsa - fas
DYEAR=2007
DGENRE=AlternRock
TTITLE0=gsg
TTITLE1=bcxvb
TTITLE2=bxcvb
TTITLE3=xbx
TTITLE4=xbvxc
TTITLE5=xvbxc
TTITLE6=xcbcxvb
TTITLE7=xcvbxc
TTITLE8=cvxb
TTITLE9=xvbxcvb
TTITLE10=bxcvb
TTITLE11=cxbxc
TTITLE12=cxbx
TTITLE13=cbxc
TTITLE14=bcxvbxc
TTITLE15=cvxbx
TTITLE16=xcvbv
EXTD=Ice Cube\n
EXTT0=
EXTT1=
EXTT2=
EXTT3=
EXTT4=
EXTT5=
EXTT6=
EXTT7=
EXTT8=
EXTT9=
EXTT10=
EXTT11=
EXTT12=
EXTT13=
EXTT14=
EXTT15=
EXTT16=
PLAYORDER=
